{
  "source": "C:\\Users\\Peter\\Desktop\\stuff\\MIUN\\quantitative_research\\video_compression\\videos\\BVI-HD\\BVI-HD_CDVL_videos\\ORIG\\BricksLeaves_1920x1080_60fps.mp4",
  "output": "C:\\Users\\Peter\\Desktop\\stuff\\MIUN\\quantitative_research\\video_compression\\compressed_videos\\BVI-HD\\vp9\\1.5\\BricksLeaves_1920x1080_60fps_vp9.webm",
  "codec": "vp9",
  "ok": "Input #0, mov,mp4,m4a,3gp,3g2,mj2, from 'C:\\Users\\Peter\\Desktop\\stuff\\MIUN\\quantitative_research\\video_compression\\videos\\BVI-HD\\BVI-HD_CDVL_videos\\ORIG\\BricksLeaves_1920x1080_60fps.mp4':\n  Metadata:\n    major_brand     : isom\n    minor_version   : 512\n    compatible_brands: isomiso2avc1mp41\n    encoder         : Lavf54.28.101\n  Duration: 00:00:05.00, start: 0.000000, bitrate: 524627 kb/s\n  Stream #0:0[0x1](und): Video: h264 (High 4:4:4 Predictive) (avc1 / 0x31637661), yuv420p(progressive), 1920x1080, 524622 kb/s, 60 fps, 60 tbr, 60 tbn (default)\n    Metadata:\n      handler_name    : VideoHandler\n      vendor_id       : [0][0][0][0]\n[out#0/webm @ 0000029d64ba9040] Codec AVOption b:a (set bitrate (in bits/s)) has not been used for any stream. The most likely reason is either wrong type (e.g. a video option with no video streams) or that it is a private option of some decoder which was not actually used for any stream.\nStream mapping:\n  Stream #0:0 -> #0:0 (h264 (native) -> vp9 (libvpx-vp9))\nPress [q] to stop, [?] for help\n[libvpx-vp9 @ 0000029d65750640] v1.15.2-100-g40561f514\nOutput #0, webm, to 'C:\\Users\\Peter\\Desktop\\stuff\\MIUN\\quantitative_research\\video_compression\\compressed_videos\\BVI-HD\\vp9\\1.5\\BricksLeaves_1920x1080_60fps_vp9.webm':\n  Metadata:\n    major_brand     : isom\n    minor_version   : 512\n    compatible_brands: isomiso2avc1mp41\n    encoder         : Lavf62.3.100\n  Stream #0:0(und): Video: vp9, yuv420p(tv, progressive), 1920x1080, q=2-31, 1500 kb/s, 60 fps, 1k tbn (default)\n    Metadata:\n      encoder         : Lavc62.11.100 libvpx-vp9\n      handler_name    : VideoHandler\n      vendor_id       : [0][0][0][0]\n    Side data:\n      cpb: bitrate max/min/avg: 0/0/0 buffer size: 1500000 vbv_delay: N/A\nframe=    0 fps=0.0 q=0.0 size=       0KiB time=N/A bitrate=N/A speed=N/A elapsed=0:00:00.53    \nframe=    5 fps=4.3 q=63.0 size=       1KiB time=00:00:00.08 bitrate=  60.8kbits/s speed=0.0721x elapsed=0:00:01.15    \nframe=   12 fps=7.1 q=59.0 size=       1KiB time=00:00:00.20 bitrate=  25.3kbits/s speed=0.118x elapsed=0:00:01.69    \nframe=   20 fps=9.0 q=60.0 size=       1KiB time=00:00:00.33 bitrate=  15.2kbits/s speed=0.15x elapsed=0:00:02.22    \nframe=   26 fps=9.4 q=60.0 size=       1KiB time=00:00:00.43 bitrate=  11.7kbits/s speed=0.157x elapsed=0:00:02.76    \nframe=   34 fps= 10 q=62.0 size=       1KiB time=00:00:00.56 bitrate=   8.9kbits/s speed=0.172x elapsed=0:00:03.28    \nframe=   39 fps= 10 q=63.0 size=       1KiB time=00:00:00.65 bitrate=   7.8kbits/s speed=0.171x elapsed=0:00:03.80    \nframe=   47 fps= 11 q=63.0 size=       1KiB time=00:00:00.78 bitrate=   6.5kbits/s speed=0.181x elapsed=0:00:04.33    \nframe=   53 fps= 11 q=63.0 size=       1KiB time=00:00:00.88 bitrate=   5.7kbits/s speed=0.182x elapsed=0:00:04.85    \nframe=   60 fps= 11 q=63.0 size=       1KiB time=00:00:01.00 bitrate=   5.1kbits/s speed=0.187x elapsed=0:00:05.35    \nframe=   66 fps= 11 q=63.0 size=       1KiB time=00:00:01.10 bitrate=   4.6kbits/s speed=0.186x elapsed=0:00:05.89    \nframe=   72 fps= 11 q=63.0 size=       1KiB time=00:00:01.20 bitrate=   4.2kbits/s speed=0.187x elapsed=0:00:06.42    \nframe=   78 fps= 11 q=63.0 size=       1KiB time=00:00:01.30 bitrate=   3.9kbits/s speed=0.187x elapsed=0:00:06.94    \nframe=   84 fps= 11 q=63.0 size=       1KiB time=00:00:01.40 bitrate=   3.6kbits/s speed=0.187x elapsed=0:00:07.47    \nframe=   90 fps= 11 q=63.0 size=       1KiB time=00:00:01.50 bitrate=   3.4kbits/s speed=0.187x elapsed=0:00:08.02    \nframe=   96 fps= 11 q=63.0 size=       1KiB time=00:00:01.60 bitrate=   3.2kbits/s speed=0.187x elapsed=0:00:08.53    \nframe=  103 fps= 11 q=63.0 size=       1KiB time=00:00:01.71 bitrate=   2.9kbits/s speed=0.189x elapsed=0:00:09.06    \nframe=  109 fps= 11 q=48.0 size=       1KiB time=00:00:01.81 bitrate=   2.8kbits/s speed=0.189x elapsed=0:00:09.60    \nframe=  116 fps= 11 q=63.0 size=       1KiB time=00:00:01.93 bitrate=   2.6kbits/s speed=0.191x elapsed=0:00:10.10    \nframe=  122 fps= 11 q=63.0 size=       1KiB time=00:00:02.03 bitrate=   2.5kbits/s speed=0.191x elapsed=0:00:10.62    \nframe=  128 fps= 11 q=63.0 size=       1KiB time=00:00:02.13 bitrate=   2.4kbits/s speed=0.192x elapsed=0:00:11.13    \nframe=  132 fps= 11 q=63.0 size=     256KiB time=00:00:02.20 bitrate= 953.3kbits/s speed=0.189x elapsed=0:00:11.67    \nframe=  139 fps= 11 q=63.0 size=     256KiB time=00:00:02.31 bitrate= 905.2kbits/s speed=0.19x elapsed=0:00:12.19    \nframe=  144 fps= 11 q=63.0 size=     256KiB time=00:00:02.40 bitrate= 873.8kbits/s speed=0.188x elapsed=0:00:12.74    \nframe=  151 fps= 11 q=63.0 size=     256KiB time=00:00:02.51 bitrate= 833.3kbits/s speed=0.19x elapsed=0:00:13.24    \nframe=  156 fps= 11 q=63.0 size=     256KiB time=00:00:02.60 bitrate= 806.6kbits/s speed=0.188x elapsed=0:00:13.79    \nframe=  162 fps= 11 q=63.0 size=     256KiB time=00:00:02.70 bitrate= 776.7kbits/s speed=0.189x elapsed=0:00:14.31    \nframe=  167 fps= 11 q=63.0 size=     256KiB time=00:00:02.78 bitrate= 753.5kbits/s speed=0.188x elapsed=0:00:14.83    \nframe=  173 fps= 11 q=63.0 size=     256KiB time=00:00:02.88 bitrate= 727.3kbits/s speed=0.188x elapsed=0:00:15.35    \nframe=  178 fps= 11 q=63.0 size=     256KiB time=00:00:02.96 bitrate= 706.9kbits/s speed=0.187x elapsed=0:00:15.86    \nframe=  184 fps= 11 q=63.0 size=     256KiB time=00:00:03.06 bitrate= 683.9kbits/s speed=0.187x elapsed=0:00:16.38    \nframe=  188 fps= 11 q=44.0 size=     256KiB time=00:00:03.13 bitrate= 669.3kbits/s speed=0.185x elapsed=0:00:16.90    \nframe=  196 fps= 11 q=63.0 size=     256KiB time=00:00:03.26 bitrate= 642.0kbits/s speed=0.187x elapsed=0:00:17.43    \nframe=  201 fps= 11 q=63.0 size=     256KiB time=00:00:03.35 bitrate= 626.0kbits/s speed=0.186x elapsed=0:00:17.96    \nframe=  208 fps= 11 q=63.0 size=     256KiB time=00:00:03.46 bitrate= 604.9kbits/s speed=0.187x elapsed=0:00:18.50    \nframe=  213 fps= 11 q=63.0 size=     256KiB time=00:00:03.55 bitrate= 590.7kbits/s speed=0.186x elapsed=0:00:19.03    \nframe=  221 fps= 11 q=63.0 size=     256KiB time=00:00:03.68 bitrate= 569.4kbits/s speed=0.188x elapsed=0:00:19.56    \nframe=  226 fps= 11 q=63.0 size=     256KiB time=00:00:03.76 bitrate= 556.8kbits/s speed=0.187x elapsed=0:00:20.11    \nframe=  234 fps= 11 q=63.0 size=     256KiB time=00:00:03.88 bitrate= 540.0kbits/s speed=0.188x elapsed=0:00:20.63    \nframe=  238 fps= 11 q=63.0 size=     256KiB time=00:00:03.96 bitrate= 528.7kbits/s speed=0.187x elapsed=0:00:21.16    \nframe=  244 fps= 11 q=63.0 size=     256KiB time=00:00:04.06 bitrate= 515.7kbits/s speed=0.187x elapsed=0:00:21.70    \nframe=  248 fps= 11 q=63.0 size=     256KiB time=00:00:04.13 bitrate= 507.4kbits/s speed=0.186x elapsed=0:00:22.21    \nframe=  253 fps= 11 q=63.0 size=     256KiB time=00:00:04.21 bitrate= 497.3kbits/s speed=0.185x elapsed=0:00:22.73    \nframe=  256 fps= 11 q=63.0 size=     256KiB time=00:00:04.26 bitrate= 491.5kbits/s speed=0.183x elapsed=0:00:23.25    \nframe=  261 fps= 11 q=63.0 size=     768KiB time=00:00:04.35 bitrate=1446.3kbits/s speed=0.183x elapsed=0:00:23.79    \nframe=  266 fps= 11 q=63.0 size=     768KiB time=00:00:04.43 bitrate=1419.1kbits/s speed=0.182x elapsed=0:00:24.29    \nframe=  270 fps= 11 q=63.0 size=     768KiB time=00:00:04.50 bitrate=1398.1kbits/s speed=0.181x elapsed=0:00:24.82    \nframe=  274 fps= 11 q=63.0 size=     768KiB time=00:00:04.56 bitrate=1377.7kbits/s speed=0.18x elapsed=0:00:25.34    \nframe=  276 fps= 11 q=63.0 size=     768KiB time=00:00:04.60 bitrate=1367.7kbits/s speed=0.178x elapsed=0:00:25.90    \nframe=  276 fps= 10 q=63.0 size=     768KiB time=00:00:04.60 bitrate=1367.7kbits/s speed=0.174x elapsed=0:00:26.44    \nframe=  276 fps= 10 q=63.0 size=     768KiB time=00:00:04.60 bitrate=1367.7kbits/s speed=0.171x elapsed=0:00:26.95    \nframe=  276 fps= 10 q=63.0 size=     768KiB time=00:00:04.60 bitrate=1367.7kbits/s speed=0.167x elapsed=0:00:27.47    \nframe=  276 fps=9.9 q=63.0 size=     768KiB time=00:00:04.60 bitrate=1367.7kbits/s speed=0.164x elapsed=0:00:27.98    \nframe=  276 fps=9.7 q=63.0 size=     768KiB time=00:00:04.60 bitrate=1367.7kbits/s speed=0.161x elapsed=0:00:28.50    \n[out#0/webm @ 0000029d64ba9040] video:1370KiB audio:0KiB subtitle:0KiB other streams:0KiB global headers:0KiB muxing overhead: 0.202527%\nframe=  300 fps= 10 q=63.0 Lsize=    1373KiB time=00:00:05.00 bitrate=2249.0kbits/s speed=0.175x elapsed=0:00:28.61    \n",
  "seconds": 28.930280923843384,
  "probe_out": {}
}